<svg width="16" height="15" viewBox="0 0 16 15" fill="none" xmlns="http://www.w3.org/2000/svg">
<path d="M7.88403 5.42833C8.91915 5.42251 9.52255 6.79867 8.82912 7.55247C7.86244 8.68939 6.86718 9.8024 5.84773 10.8953C6.59026 10.9514 7.33322 11.0148 8.07575 11.0879C8.3035 11.1103 8.53128 11.1332 8.75902 11.1572C8.84062 11.1658 8.91923 11.2011 8.97693 11.2611C9.03455 11.3209 9.06645 11.3999 9.06645 11.4815C9.06645 11.563 9.03455 11.642 8.97693 11.7019C8.91923 11.7619 8.84062 11.7971 8.75902 11.8058C8.53128 11.8298 8.3035 11.8527 8.07575 11.8751C7.16994 11.9642 6.26369 12.041 5.35787 12.1048C4.50664 12.1757 3.90173 11.0191 4.49724 10.332C5.29877 9.24287 6.12295 8.17235 6.96765 7.1192C6.35126 7.06871 5.7344 6.96689 5.11801 6.81092C4.89027 6.75329 4.66248 6.6887 4.43474 6.61667C4.36135 6.59318 4.29074 6.55476 4.2388 6.49674C4.18684 6.43865 4.15771 6.36635 4.15771 6.29235C4.15771 6.21835 4.18684 6.14604 4.2388 6.08796C4.29074 6.02993 4.36135 5.99152 4.43474 5.96803C4.66248 5.89599 4.89027 5.8314 5.11801 5.77377C6.02382 5.54457 6.93008 5.42891 7.83589 5.42749C7.85194 5.42748 7.868 5.42775 7.88403 5.42833ZM5.35787 10.8582C5.38403 10.86 5.41027 10.8622 5.43642 10.8641C5.41083 10.8565 5.38451 10.8527 5.35787 10.8582ZM7.82153 7.1572C7.82634 7.15738 7.83122 7.15721 7.83589 7.1572C7.83002 7.15719 7.82403 7.15638 7.81815 7.15636C7.81919 7.15638 7.8205 7.15719 7.82153 7.1572Z" fill="#0099FF"/>
<path d="M2.5944 8.88768C3.3151 8.88316 3.7352 9.95211 3.25241 10.5376C2.57937 11.4208 1.88643 12.2853 1.17665 13.1343C1.69363 13.1778 2.21091 13.2271 2.72789 13.2839C2.88645 13.3013 3.04504 13.319 3.20361 13.3377C3.26042 13.3444 3.31515 13.3718 3.35532 13.4184C3.39544 13.4649 3.41765 13.5262 3.41765 13.5896C3.41765 13.6529 3.39544 13.7143 3.35532 13.7608C3.31515 13.8074 3.26042 13.8348 3.20361 13.8415C3.04504 13.8602 2.88645 13.8779 2.72789 13.8953C2.09722 13.9645 1.46626 14.0242 0.835596 14.0737C0.242936 14.1288 -0.178227 13.2304 0.236389 12.6967C0.794443 11.8507 1.36827 11.0191 1.95639 10.2011C1.52723 10.1619 1.09775 10.0828 0.668594 9.96163C0.510035 9.91686 0.351434 9.86669 0.192875 9.81074C0.141775 9.79249 0.0926147 9.76265 0.0564512 9.71758C0.0202753 9.67246 0 9.6163 0 9.55882C0 9.50134 0.0202753 9.44517 0.0564512 9.40005C0.0926147 9.35498 0.141775 9.32514 0.192875 9.3069C0.351434 9.25094 0.510035 9.20077 0.668594 9.156C1.29926 8.97797 1.93022 8.88813 2.56089 8.88702C2.57206 8.88702 2.58324 8.88723 2.5944 8.88768ZM0.835596 13.1054C0.853805 13.1068 0.872073 13.1086 0.890283 13.11C0.872465 13.1041 0.854141 13.1011 0.835596 13.1054ZM2.55089 10.2306C2.55424 10.2307 2.55763 10.2306 2.56089 10.2306C2.5568 10.2306 2.55263 10.23 2.54854 10.23C2.54926 10.23 2.55017 10.2306 2.55089 10.2306Z" fill="#0099FF"/>
<path d="M14.486 0.0010936C15.7472 -0.00644647 16.4824 1.77515 15.6375 2.75103C14.4597 4.2229 13.2471 5.66383 12.0049 7.07877C12.9097 7.15134 13.8149 7.23347 14.7196 7.32807C14.9971 7.35708 15.2746 7.38664 15.5521 7.41773C15.6515 7.42895 15.7473 7.47459 15.8176 7.55222C15.8878 7.62976 15.9267 7.73201 15.9267 7.8376C15.9267 7.94319 15.8878 8.04543 15.8176 8.12298C15.7473 8.20061 15.6515 8.24625 15.5521 8.25747C15.2746 8.28856 14.9971 8.31811 14.7196 8.34713C13.6159 8.46252 12.5118 8.56191 11.4081 8.64454C10.3709 8.73633 9.6339 7.23904 10.3595 6.34946C11.3361 4.93945 12.3403 3.55354 13.3695 2.19011C12.6185 2.12474 11.8669 1.99293 11.1158 1.79101C10.8384 1.7164 10.5608 1.63278 10.2833 1.53953C10.1939 1.50912 10.1079 1.45938 10.0446 1.38426C9.98128 1.30907 9.9458 1.21546 9.9458 1.11966C9.9458 1.02385 9.98128 0.930247 10.0446 0.855051C10.1079 0.779932 10.1939 0.730197 10.2833 0.699786C10.5608 0.606533 10.8384 0.522913 11.1158 0.4483C12.2195 0.151572 13.3237 0.00183525 14.4274 1.87781e-07C14.4469 -9.30243e-06 14.4665 0.000340734 14.486 0.0010936ZM11.4081 7.03066C11.44 7.03304 11.4719 7.0359 11.5038 7.03831C11.4726 7.02852 11.4405 7.02352 11.4081 7.03066ZM14.4099 2.23931C14.4157 2.23954 14.4217 2.23933 14.4274 2.23931C14.4202 2.2393 14.4129 2.23824 14.4057 2.23822C14.407 2.23825 14.4086 2.2393 14.4099 2.23931Z" fill="#0099FF"/>
</svg>
