<svg width="18" height="18" viewBox="0 0 18 18" fill="none" xmlns="http://www.w3.org/2000/svg">
<path fill-rule="evenodd" clip-rule="evenodd" d="M2.88743 7.87529C2.88743 5.12077 5.12041 2.88779 7.87493 2.88779C10.6294 2.88779 12.8624 5.12077 12.8624 7.87529C12.8624 10.6298 10.6294 12.8628 7.87493 12.8628C5.12041 12.8628 2.88743 10.6298 2.88743 7.87529ZM7.87493 1.61279C4.41624 1.61279 1.61243 4.41661 1.61243 7.87529C1.61243 11.334 4.41624 14.1378 7.87493 14.1378C9.18225 14.1378 10.396 13.7372 11.4002 13.0521L14.1741 15.8261C14.4231 16.075 14.8267 16.075 15.0757 15.8261C15.3247 15.5771 15.3247 15.1735 15.0757 14.9245L12.3783 12.2271C13.4674 11.1004 14.1374 9.56609 14.1374 7.87529C14.1374 4.41661 11.3336 1.61279 7.87493 1.61279Z" fill="var(------text_primary, black)" fill-opacity="0.9" style="fill: var(------text_primary, black);fill-opacity:0.9;"/>
</svg>
