<svg width="15" height="14" viewBox="0 0 15 14" fill="none" xmlns="http://www.w3.org/2000/svg">
<path d="M14.38 5.1L14.58 3.75H11.93L12.19 2H10.7L10.44 3.75H5.85L6.11 2H4.63L4.37 3.75H1.72L1.52 5.1H4.17L3.81 7.54L3.6 7.5C2.8 7.34 1.99 7.26 1.2 7.25L1 8.6C1.95 8.61 2.68 8.68 3.42 8.84L3.61 8.88L3.13 12.1H4.61L5.03 9.27L5.26 9.35C6.87 9.95 8.38 10.9 9.6 12.1C9.79 12.28 10.05 12.34 10.29 12.26C10.53 12.18 10.71 11.97 10.74 11.71L10.95 10.35H13.6L13.8 9H11.14L11.72 5.1H14.38ZM9.6 9.4C9.58 9.57 9.47 9.71 9.32 9.78C9.26 9.8 9.19 9.82 9.12 9.82C9.03 9.82 8.93 9.79 8.84 9.73C7.85 9.02 6.76 8.46 5.61 8.05C5.39 7.97 5.26 7.75 5.29 7.52L5.59 5.51C5.62 5.27 5.83 5.1 6.07 5.1H9.68C9.82 5.1 9.96 5.16 10.05 5.27C10.14 5.37 10.18 5.51 10.16 5.65L9.6 9.4Z" fill="#0085FF" style="fill:#0085FF;fill:color(display-p3 0.0000 0.5216 1.0000);fill-opacity:1;"/>
</svg>
