<svg width="16" height="16" viewBox="0 0 16 16" fill="none" xmlns="http://www.w3.org/2000/svg">
<g opacity="0.2">
<path d="M7.26018 2.27212C7.26018 1.86403 7.59101 1.5332 7.9991 1.5332C8.40719 1.5332 8.73802 1.86403 8.73802 2.27212V2.55151C8.73802 2.56684 8.73755 2.58206 8.73663 2.59715C10.908 2.9539 12.3244 4.8742 12.3244 7.10339L12.325 9.3126L13.6666 11.0593C13.6931 11.0938 13.7156 11.1313 13.7336 11.171C13.841 11.4087 13.8575 11.6552 13.8039 11.8804C13.7953 11.8714 13.7866 11.8625 13.7777 11.8537L11.1917 9.28614L11.1911 7.10339C11.1911 5.15918 9.86246 3.67118 7.9985 3.67118C7.28474 3.67118 6.64948 3.88937 6.13726 4.26781L5.32466 3.46103C5.86435 3.02354 6.51881 2.71878 7.26156 2.59696C7.26065 2.58193 7.26018 2.56677 7.26018 2.55151V2.27212Z" fill="var(------icon_primary, #1A1A1A)" style="fill:#1A1A1A;fill:color(display-p3 0.1020 0.1020 0.1020);fill-opacity:1;"/>
<path d="M3.93376 3.13251C3.71246 2.91121 3.35367 2.91121 3.13237 3.13251C2.91108 3.3538 2.91108 3.7126 3.13237 3.93389L12.4657 13.2672C12.687 13.4885 13.0458 13.4885 13.2671 13.2672C13.4884 13.0459 13.4884 12.6871 13.2671 12.4658L3.93376 3.13251Z" fill="var(------icon_primary, #1A1A1A)" style="fill:#1A1A1A;fill:color(display-p3 0.1020 0.1020 0.1020);fill-opacity:1;"/>
<path d="M5.92123 13.4184C5.87982 13.3254 5.95211 13.2266 6.05385 13.2266H9.94771C10.0494 13.2266 10.1217 13.3254 10.0803 13.4184C9.75602 14.1461 8.94722 14.6617 8.00078 14.6617C7.05434 14.6617 6.24554 14.1461 5.92123 13.4184Z" fill="var(------icon_primary, #1A1A1A)" style="fill:#1A1A1A;fill:color(display-p3 0.1020 0.1020 0.1020);fill-opacity:1;"/>
<path d="M3.67258 7.10339C3.67258 6.63726 3.73451 6.18464 3.85233 5.757L4.82338 6.72111C4.81181 6.84631 4.80591 6.97384 4.80591 7.10339V9.50687C4.80591 9.63173 4.76467 9.7531 4.6886 9.85212L3.34217 11.6045H9.74191L10.8834 12.7378H3.28075C2.478 12.7378 1.93012 11.9115 2.26491 11.171C2.28287 11.1313 2.30535 11.0938 2.3319 11.0592L3.67258 9.31431V7.10339Z" fill="var(------icon_primary, #1A1A1A)" style="fill:#1A1A1A;fill:color(display-p3 0.1020 0.1020 0.1020);fill-opacity:1;"/>
</g>
</svg>
