<svg width="25" height="17" viewBox="0 0 25 17" fill="none" xmlns="http://www.w3.org/2000/svg">
<path d="M8.89064 8.1718e-05C9.13615 -0.00358257 9.36578 0.116174 9.50197 0.316488C9.50869 0.325659 9.51933 0.341197 9.53029 0.359457C9.53148 0.36172 9.53305 0.364029 9.5342 0.366293C9.71209 0.633255 9.81573 0.921968 9.8633 1.21395H24.124V15.2139H6.74904C6.70914 15.2406 6.67077 15.2691 6.63088 15.294C6.21931 15.556 5.75488 15.7785 5.21388 15.9415C3.59449 16.4299 2.38385 16.091 1.57228 15.5714C1.17851 15.3192 0.893531 15.0345 0.706071 14.8116C0.612022 14.6998 0.540695 14.6013 0.491228 14.5274C0.466799 14.4908 0.447291 14.4594 0.432634 14.4356C0.426056 14.4243 0.419882 14.4142 0.415056 14.4063C0.412613 14.4027 0.40822 14.3956 0.40822 14.3956L0.40529 14.3897V14.3878C0.250178 14.1087 0.293501 13.7614 0.512712 13.5294C0.637298 13.3975 0.792898 13.1586 0.93947 12.8526C1.07253 12.5755 1.17652 12.2833 1.23634 12.0343C1.24123 11.8647 1.24624 11.6811 1.25295 11.4786V11.4434C1.25356 11.4147 1.25404 11.375 1.25588 11.3243C1.2571 11.2938 1.25893 11.2583 1.26076 11.2198C1.03418 11.119 0.767604 10.9837 0.545915 10.8145C0.368237 10.6784 -0.00286768 10.3553 1.67172e-05 9.84676C0.00184863 9.51824 0.170598 9.28057 0.313493 9.14071C0.453958 9.00269 0.62005 8.90674 0.761735 8.83895C1.03712 8.70771 1.3753 8.61155 1.69826 8.54012C1.84666 8.02593 2.04601 7.48437 2.31838 6.9659C2.12549 6.16231 2.18459 5.31439 2.44045 4.55477C2.77639 3.55947 3.49141 2.70406 4.4092 2.19051C4.82317 1.95915 5.25366 1.80786 5.65236 1.68758C5.84525 1.62899 6.01183 1.5831 6.16994 1.53914C6.37499 1.48178 6.56594 1.42769 6.78322 1.3575C7.49104 1.12788 8.0172 0.814185 8.26271 0.375082C8.39038 0.147581 8.62948 0.00441177 8.89064 8.1718e-05Z" fill="#FFD8D9" style="fill:#FFD8D9;fill:color(display-p3 1.0000 0.8471 0.8510);fill-opacity:1;"/>
<path d="M8.89064 8.1718e-05C9.13615 -0.00358257 9.36578 0.116174 9.50197 0.316488C9.50869 0.325659 9.51933 0.341197 9.53029 0.359457C9.53148 0.36172 9.53305 0.364029 9.5342 0.366293C9.71209 0.633255 9.81573 0.921968 9.8633 1.21395H24.124V15.2139H6.74904C6.70914 15.2406 6.67077 15.2691 6.63088 15.294C6.21931 15.556 5.75488 15.7785 5.21388 15.9415C3.59449 16.4299 2.38385 16.091 1.57228 15.5714C1.17851 15.3192 0.893531 15.0345 0.706071 14.8116C0.612022 14.6998 0.540695 14.6013 0.491228 14.5274C0.466799 14.4908 0.447291 14.4594 0.432634 14.4356C0.426056 14.4243 0.419882 14.4142 0.415056 14.4063C0.412613 14.4027 0.40822 14.3956 0.40822 14.3956L0.40529 14.3897V14.3878C0.250178 14.1087 0.293501 13.7614 0.512712 13.5294C0.637298 13.3975 0.792898 13.1586 0.93947 12.8526C1.07253 12.5755 1.17652 12.2833 1.23634 12.0343C1.24123 11.8647 1.24624 11.6811 1.25295 11.4786V11.4434C1.25356 11.4147 1.25404 11.375 1.25588 11.3243C1.2571 11.2938 1.25893 11.2583 1.26076 11.2198C1.03418 11.119 0.767604 10.9837 0.545915 10.8145C0.368237 10.6784 -0.00286768 10.3553 1.67172e-05 9.84676C0.00184863 9.51824 0.170598 9.28057 0.313493 9.14071C0.453958 9.00269 0.62005 8.90674 0.761735 8.83895C1.03712 8.70771 1.3753 8.61155 1.69826 8.54012C1.84666 8.02593 2.04601 7.48437 2.31838 6.9659C2.12549 6.16231 2.18459 5.31439 2.44045 4.55477C2.77639 3.55947 3.49141 2.70406 4.4092 2.19051C4.82317 1.95915 5.25366 1.80786 5.65236 1.68758C5.84525 1.62899 6.01183 1.5831 6.16994 1.53914C6.37499 1.48178 6.56594 1.42769 6.78322 1.3575C7.49104 1.12788 8.0172 0.814185 8.26271 0.375082C8.39038 0.147581 8.62948 0.00441177 8.89064 8.1718e-05Z" fill="white" fill-opacity="0.3" style="fill:white;fill-opacity:0.3;"/>
</svg>
