<svg width="29" height="29" viewBox="0 0 29 29" fill="none" xmlns="http://www.w3.org/2000/svg">
<path fill-rule="evenodd" clip-rule="evenodd" d="M10.9854 4.51152C11.5311 4.59467 11.9062 5.10432 11.8232 5.6502L11.3447 8.79863H19.333L19.7988 5.36504C19.8733 4.81796 20.3777 4.43429 20.9248 4.50859C21.4719 4.58302 21.8555 5.0874 21.7812 5.63457L21.3516 8.79863H24.4102C24.9623 8.79873 25.4101 9.24644 25.4102 9.79863C25.4102 10.3509 24.9624 10.7985 24.4102 10.7986H21.0801L20.1836 17.3963H23.0527C23.6049 17.3964 24.0527 17.8441 24.0527 18.3963C24.0527 18.9484 23.6049 19.3962 23.0527 19.3963H19.9121L19.373 23.365C19.2198 24.4938 17.7385 24.8125 17.1348 23.8465L14.3535 19.3963H9.73535L9.1084 23.5242C9.0253 24.07 8.5156 24.445 7.96973 24.3621C7.42371 24.2792 7.04792 23.7695 7.13086 23.2234L7.71191 19.3963H4.5C3.94773 19.3963 3.50003 18.9485 3.5 18.3963C3.5 17.844 3.94772 17.3963 4.5 17.3963H8.01562L9.01758 10.7986H5.85742C5.30517 10.7986 4.85742 10.3509 4.85742 9.79863C4.85745 9.2464 5.30519 8.79867 5.85742 8.79863H9.32227L9.8457 5.34942C9.92878 4.80355 10.4394 4.4286 10.9854 4.51152ZM11.041 10.7986L10.0391 17.3963H14.6064C15.1385 17.3963 15.6331 17.6707 15.915 18.1219L17.6826 20.95L19.0605 10.7986H11.041Z" fill="var(------icon_tabbar_primary, #1A1A1A)" style="fill:#1A1A1A;fill:color(display-p3 0.1020 0.1020 0.1020);fill-opacity:1;"/>
</svg>
