<svg width="29" height="29" viewBox="0 0 29 29" fill="none" xmlns="http://www.w3.org/2000/svg">
<path d="M16.0215 17.0605C20.2554 17.0605 23.5 20.3166 23.5 23.8486C23.4998 24.535 22.9381 25.0605 22.2842 25.0605H6.71582C6.0619 25.0605 5.50025 24.535 5.5 23.8486C5.5 20.3069 8.85429 17.0605 12.9785 17.0605H16.0215ZM12.9785 19.0605C10.1774 19.0605 8.03907 21.0141 7.58887 23.0605H21.4141C20.9799 21.0082 18.9026 19.0605 16.0215 19.0605H12.9785ZM14.5 4C17.8137 4.00003 20.5 6.68631 20.5 10C20.5 13.3137 17.8137 16 14.5 16C11.1863 16 8.5 13.3137 8.5 10C8.5 8.80221 8.85243 7.68312 9.45898 6.74512C9.49385 6.69103 9.49849 6.65822 9.5 6.6377C9.50201 6.60986 9.49913 6.56113 9.47363 6.4834C9.41176 6.29499 9.29709 6.12998 9.12988 5.86914C9.13334 5.87453 9.13145 5.87212 9.09473 5.82324C9.07281 5.79408 9.01403 5.71638 8.96387 5.63379C8.93808 5.59132 8.89574 5.51856 8.86035 5.42578C8.83051 5.34747 8.76652 5.15667 8.7959 4.91309C8.83291 4.60685 9.00726 4.31696 9.29688 4.14648C9.52775 4.01062 9.74921 4.00001 9.84766 4H14.5ZM11.4141 6C11.5551 6.52524 11.5578 7.18239 11.1377 7.83203C10.7342 8.45613 10.5 9.1992 10.5 10C10.5 12.2091 12.2909 14 14.5 14C16.7091 14 18.5 12.2091 18.5 10C18.5 7.79088 16.7091 6.00003 14.5 6H11.4141Z" fill="var(------icon_tabbar_primary, #1A1A1A)" style="fill:#1A1A1A;fill:color(display-p3 0.1020 0.1020 0.1020);fill-opacity:1;"/>
</svg>
