<svg width="29" height="29" viewBox="0 0 29 29" fill="none" xmlns="http://www.w3.org/2000/svg">
<path fill-rule="evenodd" clip-rule="evenodd" d="M14.4999 4.5C15.0522 4.5 15.4999 4.94772 15.4999 5.5C15.4999 6.05228 15.0522 6.5 14.4999 6.5C12.9177 6.5 11.3712 6.96958 10.0556 7.84863C8.74009 8.72764 7.71483 9.97676 7.10932 11.4385C6.50386 12.9002 6.34465 14.5088 6.65327 16.0605C6.96195 17.6124 7.7239 19.0384 8.84272 20.1572C9.96154 21.276 11.3876 22.038 12.9394 22.3467C14.4912 22.6553 16.0997 22.4961 17.5615 21.8906C19.0232 21.2851 20.2723 20.2599 21.1513 18.9443C22.0304 17.6287 22.5 16.0823 22.5 14.5C22.5 13.9477 22.9477 13.5 23.5 13.5C24.0522 13.5 24.5 13.9477 24.5 14.5C24.5 16.4778 23.9132 18.4112 22.8144 20.0557C21.7156 21.7001 20.1543 22.9824 18.3271 23.7393C16.4998 24.4961 14.4886 24.6935 12.5488 24.3076C10.6091 23.9217 8.82711 22.9697 7.42866 21.5713C6.03021 20.1728 5.07822 18.3909 4.69233 16.4512C4.30648 14.5114 4.50382 12.5001 5.26069 10.6729C6.01756 8.84567 7.29987 7.28434 8.94429 6.18555C10.5888 5.08673 12.5221 4.5 14.4999 4.5ZM22.7988 6.54492C23.2151 6.35968 23.6403 6.78484 23.455 7.20117L22.4326 9.5L23.455 11.7988C23.6403 12.2152 23.2151 12.6403 22.7988 12.4551L20.7021 11.5225C20.5734 11.4652 20.4265 11.4652 20.2978 11.5225L18.2011 12.4551C17.7848 12.6403 17.3596 12.2152 17.5449 11.7988L18.5673 9.5L17.5449 7.20117C17.3596 6.78484 17.7848 6.35968 18.2011 6.54492L20.4999 7.56738L22.7988 6.54492Z" fill="var(------icon_tabbar_primary, #1A1A1A)" style="fill:#1A1A1A;fill:color(display-p3 0.1020 0.1020 0.1020);fill-opacity:1;"/>
</svg>
