<svg width="15" height="15" viewBox="0 0 15 15" fill="none" xmlns="http://www.w3.org/2000/svg">
<g clip-path="url(#clip0_2218_8151)">
<g filter="url(#filter0_i_2218_8151)">
<path d="M11.9059 8.32717C11.6628 6.1634 10.6173 4.63173 8.88039 3.90376C6.82351 3.04143 4.51012 3.73581 2.88562 5.65895C1.26112 7.5827 1.26112 10.8317 1.26112 10.8317C1.19761 12.8049 1.21471 13.0791 1.24524 13.9311L1.82115 13.9879L11.5223 8.60931L11.9193 8.55557C11.9108 8.40961 11.9059 8.32655 11.9059 8.32655V8.32717Z" fill="url(#paint0_linear_2218_8151)"/>
</g>
<path d="M1.67214 10.1892C1.67214 10.1892 -0.0030494 9.71527 4.16952e-06 9.17907C0.00305774 8.6453 2.1259 8.3656 2.95037 8.36132C3.80109 8.35705 5.30894 8.47247 5.3633 8.76744C5.44513 9.21388 2.53752 10.3406 1.67214 10.1898V10.1892Z" fill="url(#paint1_linear_2218_8151)"/>
<path fill-rule="evenodd" clip-rule="evenodd" d="M1.79121 13.1187C1.79121 13.1187 3.4719 15.5744 5.78895 13.8711C8.106 12.1684 10.7583 9.32862 14.2052 9.12403C14.2052 9.12403 12.9935 7.05554 10.0041 8.94998C7.01526 10.8444 2.99493 12.4799 1.7906 13.1187H1.79121Z" fill="url(#paint2_linear_2218_8151)"/>
<path fill-rule="evenodd" clip-rule="evenodd" d="M1.24158 11.4735C1.09989 12.13 0.710257 12.9691 0.314514 13.3887C0.314514 13.3887 1.4651 15.4602 4.30004 14.6052C7.40918 13.6672 7.65041 10.5849 11.7208 8.21167C11.7208 8.21167 10.3076 8.43153 7.21314 10.1562C4.11804 11.8808 2.48866 12.8097 1.22692 12.0671C1.22692 12.0671 1.2373 11.8778 1.24219 11.4735H1.24158Z" fill="url(#paint3_linear_2218_8151)"/>
<path fill-rule="evenodd" clip-rule="evenodd" d="M1.24158 11.4735C1.09989 12.13 0.710257 12.9691 0.314514 13.3887C0.314514 13.3887 1.4651 15.4602 4.30004 14.6052C7.40918 13.6672 7.65041 10.5849 11.7208 8.21167C11.7208 8.21167 10.3076 8.43153 7.21314 10.1562C4.11804 11.8808 2.48866 12.8097 1.22692 12.0671C1.22692 12.0671 1.2373 11.8778 1.24219 11.4735H1.24158Z" fill="url(#paint4_linear_2218_8151)"/>
<path d="M12.9685 3.7345L12.9429 3.74549L12.9685 3.7345Z" fill="#FBFF80" style="fill:#FBFF80;fill:color(display-p3 0.9843 1.0000 0.5020);fill-opacity:1;"/>
<path fill-rule="evenodd" clip-rule="evenodd" d="M8.26601 1.84374C7.98936 2.42697 7.51788 2.89967 7.02626 3.35343C6.4815 3.46274 5.89155 3.52687 5.39077 3.71925C5.26618 3.76749 5.14343 3.81818 5.02373 3.87253C9.21689 1.87306 8.30998 0.145956 8.22998 0.00854492C8.59946 0.532538 8.54205 1.26417 8.26601 1.84374Z" fill="url(#paint5_linear_2218_8151)"/>
<path fill-rule="evenodd" clip-rule="evenodd" d="M5.0225 3.87315C5.0225 3.87315 5.01945 3.87498 5.01823 3.87498C3.84321 4.41058 2.89722 5.27535 2.49354 6.64213C2.14054 5.8427 2.13871 4.91075 2.41781 4.08324C2.6969 3.25572 3.29479 2.53874 4.06063 2.11063C4.75745 1.7216 5.55993 1.57625 6.31905 1.33014C7.07817 1.08402 7.83728 0.693161 8.22509 -0.000610352C8.22692 0.00244322 8.22936 0.00488608 8.23059 0.00793965C8.31059 0.14535 9.2175 1.87245 5.02311 3.87254L5.0225 3.87315Z" fill="url(#paint6_linear_2218_8151)"/>
<path fill-rule="evenodd" clip-rule="evenodd" d="M9.15951 2.48193C8.92255 2.92409 8.51643 3.26304 8.07427 3.51648C7.63211 3.77054 7.14904 3.94887 6.67634 4.14674C5.1691 4.77883 3.76873 5.39871 2.49356 6.64212C2.89724 5.27534 3.84385 4.41057 5.01825 3.87497C5.01947 3.87497 5.0207 3.87436 5.02253 3.87314C5.14223 3.81879 5.26498 3.7681 5.38957 3.71985C5.89096 3.52748 6.4803 3.46274 7.02506 3.35464C7.14476 3.33083 7.26202 3.30457 7.37683 3.27464C8.01014 3.10731 8.64406 2.88623 9.15829 2.48254L9.15951 2.48193Z" fill="url(#paint7_linear_2218_8151)"/>
<path fill-rule="evenodd" clip-rule="evenodd" d="M9.15951 2.48193C9.15951 2.48193 9.26333 3.13357 8.60803 3.79741C8.09931 3.8707 4.43869 4.77272 2.49356 6.64212C3.87011 5.20206 5.1691 4.71776 6.67634 4.08567C7.14904 3.8878 7.63211 3.70947 8.07427 3.45541C8.51643 3.20197 8.92255 2.92409 9.15951 2.48193Z" fill="url(#paint8_linear_2218_8151)"/>
</g>
<defs>
<filter id="filter0_i_2218_8151" x="0.446482" y="3.53821" width="11.4728" height="10.6426" filterUnits="userSpaceOnUse" color-interpolation-filters="sRGB">
<feFlood flood-opacity="0" result="BackgroundImageFix"/>
<feBlend mode="normal" in="SourceGraphic" in2="BackgroundImageFix" result="shape"/>
<feColorMatrix in="SourceAlpha" type="matrix" values="0 0 0 0 0 0 0 0 0 0 0 0 0 0 0 0 0 0 127 0" result="hardAlpha"/>
<feOffset dx="-0.771429" dy="0.192857"/>
<feGaussianBlur stdDeviation="0.514286"/>
<feComposite in2="hardAlpha" operator="arithmetic" k2="-1" k3="1"/>
<feColorMatrix type="matrix" values="0 0 0 0 0.936018 0 0 0 0 0.835873 0 0 0 0 0.835873 0 0 0 0.6 0"/>
<feBlend mode="normal" in2="shape" result="effect1_innerShadow_2218_8151"/>
</filter>
<linearGradient id="paint0_linear_2218_8151" x1="1.21776" y1="8.76321" x2="11.9193" y2="8.76321" gradientUnits="userSpaceOnUse">
<stop stop-color="#575757" style="stop-color:#575757;stop-color:color(display-p3 0.3409 0.3409 0.3409);stop-opacity:1;"/>
<stop offset="1" style="stop-color:black;stop-opacity:1;"/>
</linearGradient>
<linearGradient id="paint1_linear_2218_8151" x1="1.18178e-08" y1="8.73456" x2="5.28331" y2="10.4185" gradientUnits="userSpaceOnUse">
<stop stop-color="#FAC67D" style="stop-color:#FAC67D;stop-color:color(display-p3 0.9804 0.7765 0.4902);stop-opacity:1;"/>
<stop offset="1" stop-color="#E79F48" style="stop-color:#E79F48;stop-color:color(display-p3 0.9059 0.6235 0.2824);stop-opacity:1;"/>
</linearGradient>
<linearGradient id="paint2_linear_2218_8151" x1="1.66476" y1="12.1893" x2="14.3868" y2="10.4601" gradientUnits="userSpaceOnUse">
<stop offset="0.5" stop-color="#D62E2C" style="stop-color:#D62E2C;stop-color:color(display-p3 0.8392 0.1804 0.1725);stop-opacity:1;"/>
<stop offset="1" stop-color="#EB4D4B" style="stop-color:#EB4D4B;stop-color:color(display-p3 0.9216 0.3020 0.2941);stop-opacity:1;"/>
</linearGradient>
<linearGradient id="paint3_linear_2218_8151" x1="0.186311" y1="12.4575" x2="12.0769" y2="10.8414" gradientUnits="userSpaceOnUse">
<stop offset="0.12" stop-color="#E09773" style="stop-color:#E09773;stop-color:color(display-p3 0.8784 0.5922 0.4510);stop-opacity:1;"/>
<stop offset="1" stop-color="#F7CBA0" style="stop-color:#F7CBA0;stop-color:color(display-p3 0.9686 0.7961 0.6275);stop-opacity:1;"/>
</linearGradient>
<linearGradient id="paint4_linear_2218_8151" x1="-3.55705" y1="11.8246" x2="11.7757" y2="10.2061" gradientUnits="userSpaceOnUse">
<stop stop-color="#E73533" style="stop-color:#E73533;stop-color:color(display-p3 0.9059 0.2078 0.2000);stop-opacity:1;"/>
<stop offset="1" stop-color="#FF6B69" style="stop-color:#FF6B69;stop-color:color(display-p3 1.0000 0.4180 0.4115);stop-opacity:1;"/>
</linearGradient>
<linearGradient id="paint5_linear_2218_8151" x1="5.365" y1="3.61069" x2="10.1369" y2="0.971986" gradientUnits="userSpaceOnUse">
<stop stop-color="#D62E2C" style="stop-color:#D62E2C;stop-color:color(display-p3 0.8382 0.1806 0.1732);stop-opacity:1;"/>
<stop offset="1" stop-color="#FF6B69" style="stop-color:#FF6B69;stop-color:color(display-p3 1.0000 0.4180 0.4115);stop-opacity:1;"/>
</linearGradient>
<linearGradient id="paint6_linear_2218_8151" x1="0.13049" y1="3.6355" x2="8.4622" y2="3.16434" gradientUnits="userSpaceOnUse">
<stop stop-color="#E73533" style="stop-color:#E73533;stop-color:color(display-p3 0.9059 0.2078 0.2000);stop-opacity:1;"/>
<stop offset="1" stop-color="#FF6B69" style="stop-color:#FF6B69;stop-color:color(display-p3 1.0000 0.4180 0.4115);stop-opacity:1;"/>
</linearGradient>
<linearGradient id="paint7_linear_2218_8151" x1="3.3556" y1="6.64212" x2="9.21426" y2="4.39267" gradientUnits="userSpaceOnUse">
<stop stop-color="#E73533" style="stop-color:#E73533;stop-color:color(display-p3 0.9059 0.2078 0.2000);stop-opacity:1;"/>
<stop offset="1" stop-color="#FA605E" style="stop-color:#FA605E;stop-color:color(display-p3 0.9804 0.3765 0.3686);stop-opacity:1;"/>
</linearGradient>
<linearGradient id="paint8_linear_2218_8151" x1="3.15043" y1="6.3602" x2="9.21609" y2="0.364029" gradientUnits="userSpaceOnUse">
<stop stop-color="#D62E2C" style="stop-color:#D62E2C;stop-color:color(display-p3 0.8382 0.1806 0.1732);stop-opacity:1;"/>
<stop offset="1" stop-color="#E8403E" style="stop-color:#E8403E;stop-color:color(display-p3 0.9084 0.2518 0.2444);stop-opacity:1;"/>
</linearGradient>
<clipPath id="clip0_2218_8151">
<rect width="14.2058" height="14.8123" fill="white" style="fill:white;fill-opacity:1;"/>
</clipPath>
</defs>
</svg>
