<svg width="10" height="10" viewBox="0 0 10 10" fill="none" xmlns="http://www.w3.org/2000/svg">
<path fill-rule="evenodd" clip-rule="evenodd" d="M3.0829 0.999607C2.94459 1.13792 2.94459 1.36216 3.0829 1.50047L6.36149 4.77907C6.44813 4.86571 6.49785 4.91582 6.53143 4.95537C6.54516 4.97154 6.55198 4.98123 6.55491 4.98573C6.55713 4.99514 6.55713 5.00494 6.55491 5.01435C6.55198 5.01885 6.54516 5.02854 6.53143 5.04471C6.49785 5.08427 6.44813 5.13438 6.36149 5.22101L3.0829 8.49961C2.94459 8.63792 2.94459 8.86216 3.0829 9.00047C3.22121 9.13879 3.44545 9.13879 3.58376 9.00047L6.8708 5.71344C6.94603 5.63822 7.0168 5.56746 7.07142 5.50313C7.13076 5.43323 7.19152 5.34798 7.22718 5.23824C7.27748 5.08342 7.27748 4.91666 7.22718 4.76184C7.19152 4.6521 7.13076 4.56685 7.07142 4.49695C7.0168 4.43262 6.94603 4.36186 6.87079 4.28663L3.58376 0.999607C3.44545 0.861296 3.22121 0.861296 3.0829 0.999607Z" fill="var(------icon_nav_primary, #1A1A1A)" style="fill:#1A1A1A;fill:color(display-p3 0.1020 0.1020 0.1020);fill-opacity:1;"/>
</svg>
