<svg width="24" height="24" viewBox="0 0 24 24" fill="none" xmlns="http://www.w3.org/2000/svg">
<path d="M12.8499 3.00002C12.8499 2.53058 12.4693 2.15002 11.9999 2.15002C11.5305 2.15002 11.1499 2.53058 11.1499 3.00002V11.15H2.9999C2.53046 11.15 2.1499 11.5306 2.1499 12C2.1499 12.4695 2.53046 12.85 2.9999 12.85H11.1499V21C11.1499 21.4695 11.5305 21.85 11.9999 21.85C12.4693 21.85 12.8499 21.4695 12.8499 21V12.85H20.9999C21.4693 12.85 21.8499 12.4695 21.8499 12C21.8499 11.5306 21.4693 11.15 20.9999 11.15H12.8499V3.00002Z" fill="var(------icon_primary, #1A1A1A)" style="fill:#1A1A1A;fill:color(display-p3 0.1020 0.1020 0.1020);fill-opacity:1;"/>
</svg>
