<svg width="10" height="10" viewBox="0 0 10 10" fill="none" xmlns="http://www.w3.org/2000/svg">
<path fill-rule="evenodd" clip-rule="evenodd" d="M3.08313 0.999561C2.94481 1.13787 2.94481 1.36212 3.08313 1.50043L6.36172 4.77902C6.44836 4.86566 6.49808 4.91577 6.53166 4.95532C6.54539 4.9715 6.55221 4.98119 6.55514 4.98568C6.55736 4.9951 6.55736 5.0049 6.55514 5.01431C6.55221 5.0188 6.54539 5.02849 6.53166 5.04467C6.49808 5.08422 6.44836 5.13433 6.36172 5.22097L3.08313 8.49956C2.94481 8.63787 2.94481 8.86212 3.08313 9.00043C3.22144 9.13874 3.44568 9.13874 3.58399 9.00043L6.87102 5.7134C6.94626 5.63818 7.01703 5.56742 7.07165 5.50308C7.13098 5.43319 7.19175 5.34794 7.22741 5.2382C7.27771 5.08338 7.27771 4.91661 7.22741 4.76179C7.19175 4.65205 7.13098 4.5668 7.07165 4.49691C7.01703 4.43257 6.94626 4.36181 6.87102 4.28659L3.58399 0.999561C3.44568 0.861251 3.22144 0.861251 3.08313 0.999561Z" fill="var(------icon_nav_primary, #1A1A1A)"/>
</svg>
