<svg width="17" height="15" viewBox="0 0 17 15" fill="none" xmlns="http://www.w3.org/2000/svg">
<path d="M10.7054 1.9857C10.4435 1.70984 9.99413 1.74413 9.77718 2.05656L6.50354 6.7708C6.1294 7.30959 6.76777 7.97266 7.32023 7.61904L12.1399 4.53371C12.4572 4.33057 12.5108 3.8879 12.2514 3.61461L10.7054 1.9857Z" fill="#0099FF" stroke="#0099FF" stroke-width="0.2" stroke-linejoin="round"/>
<path d="M13.2788 7.49782C13.1165 7.24723 12.795 7.15357 12.524 7.27869L8.38773 9.18973C7.7798 9.47076 8.0199 10.3853 8.68763 10.332L13.7966 9.92408C14.2491 9.88764 14.4987 9.38131 14.2521 9.00014L13.2788 7.49782Z" fill="#0099FF" stroke="#0099FF" stroke-width="0.2" stroke-linejoin="round"/>
<path d="M5.51803 1.47718C5.15607 1.20835 4.63865 1.41968 4.56827 1.86502L4.00014 5.46373C3.89841 6.10934 4.75543 6.42908 5.10136 5.87452L6.81474 3.12748C6.97999 2.86247 6.91438 2.51445 6.66384 2.32806L5.51803 1.47718Z" fill="#0099FF" stroke="#0099FF" stroke-width="0.2" stroke-linejoin="round"/>
</svg>
